Genre:Horror | Sci-Fi
Language:English  http://www.imdb.com/title/tt1509125/
Source:DVD


Format : MPEG-4
Format profile : Base Media
Codec ID : isom
File size : 701 MiB
Duration : 1h 24mn
Overall bit rate : 1 161 Kbps
Movie name : Virus.X.2010.DvDRip.x264.Feel-Free


Video
Format settings, CABAC : Yes
Format settings, ReFrames : 4 frames
Codec ID : avc1
Codec ID/Info : Advanced Video Coding
Duration : 1h 24mn
Bit rate mode : Variable
Bit rate : 789 Kbps
Width : 720 pixels
Height : 384 pixels
Display aspect ratio : 1.875
Frame rate mode : Constant
Frame rate : 23.976 fps
Color space : YUV
Chroma subsampling : 4:2:0
Bit depth : 8 bits
Scan type : Progressive
Bits/(Pixel*Frame) : 0.119
Stream size : 478 MiB (68%)
Writing library : x264

Audio
ID : 2
Format : AAC
Format/Info : Advanced Audio Codec
Format version : Version 4
Format profile : LC
Codec ID : 40
Duration : 1h 24mn
Bit rate mode : Variable
Bit rate : 363 Kbps
Channel(s) : 6 channels
Channel positions : Front: L C R, Side: L R, LFE
Sampling rate : 48.0 KHz
Stream size : 220 MiB (31%)



Plot:
A thriller about a case of highly contagious swine flu virus engineered by rogue scientists. A cover up by a mysterious dark lady linked to the High Spheres adds action and mystery
 
http://rapidhdd.com/images/90850vlcsnap-00001.png 
http://www.rapidhdd.com/images/998334vlcsnap-00002.png 
http://www.rapidhdd.com/images/410407vlcsnap-00003.png 
http://www.rapidhdd.com/images/268735vlcsnap-00004.png